<svg xmlns="http://www.w3.org/2000/svg" width="62.368" height="58.118" viewBox="0 0 62.368 58.118">
  <g id="etisalat_logo" transform="translate(-36.157 -40.508)">
    <g id="Group_157371" data-name="Group 157371" transform="translate(36.157 40.508)">
      <path id="Path_376554" data-name="Path 376554" d="M50.974,56.273a7.591,7.591,0,0,1,7.688,7.577H42.948c.561-5.725,4.883-7.577,8.026-7.577M75.291,45.559c2.47,0,4.49,1.4,4.49,4.153,0,2.525-1.515,4.995-4.939,6.51l-.056-.056c-2.021-2.133-3.929-4.6-3.929-6.959,0-2.3,2.076-3.647,4.433-3.647M89.153,71.767A31.83,31.83,0,0,0,93.082,59.42H86.347A26.4,26.4,0,0,1,84.776,67,20.159,20.159,0,0,1,81.3,73.058,10.888,10.888,0,0,1,73.1,77.211c-3.779,0-6.374-1.619-7.358-4.326h-7.2c-1.179,2.806-3.929,4.209-7.408,4.209-3.816,0-7.745-2.75-8.194-8.362H65.461c.576-2.763,2.763-4.832,6.295-6.169,0,0,3.264-1.207,6.51-2.581,4.489-2.076,7.857-5.781,7.857-10.494,0-6.679-5.725-8.98-10.888-8.98-6.51,0-11.336,3.424-11.336,8.867,0,3.2,1.74,6.23,4.322,9.26A19.69,19.69,0,0,0,64.343,60.5a13.7,13.7,0,0,0-13.369-9.449c-8.587,0-14.817,6.453-14.817,15.545,0,8.643,5.556,16.051,15.265,16.051a14.138,14.138,0,0,0,10.177-3.9,14.183,14.183,0,0,0,10.324,3.908,18.278,18.278,0,0,0,13.132-5.443l4.321,4.715h9.148Z" transform="translate(-36.157 -40.508)" fill="#e00700"/>
      <path id="Path_376555" data-name="Path 376555" d="M41.037,148.227a1.647,1.647,0,0,0-1.666-1.645,1.7,1.7,0,0,0-1.738,1.645ZM39.408,151.1a1.606,1.606,0,0,0,1.6-.914h1.423a2.959,2.959,0,0,1-2.967,2.12,3.258,3.258,0,0,1-3.307-3.485,3.177,3.177,0,0,1,3.21-3.375c2.006,0,3.258,1.633,3.137,3.838H37.633a1.809,1.809,0,0,0,1.775,1.815" transform="translate(-36.16 -94.19)" fill="#e00700"/>
      <path id="Path_376556" data-name="Path 376556" d="M51.816,142.207v1.73h1.313v1.048H51.816v3.57c0,.67.158.828.778.828h.523v1.109h-1.07c-1.4,0-1.678-.378-1.678-1.718v-3.788H49.4v-1.048h.973v-1.73Z" transform="translate(-42.93 -92.532)" fill="#e00700"/>
      <path id="Path_376557" data-name="Path 376557" d="M60.256,149.917H58.809v-6.555h1.447Zm0-7.37H58.809v-1.462h1.447Z" transform="translate(-47.745 -91.958)" fill="#e00700"/>
      <path id="Path_376558" data-name="Path 376558" d="M66.423,146.559c-.633,0-1.216.28-1.216.719s.316.67.875.78l.924.182c1.325.256,2.334.67,2.334,1.949,0,1.364-1.289,2.12-2.772,2.12a2.6,2.6,0,0,1-2.833-2.156h1.411a1.313,1.313,0,0,0,1.471,1.059c.754,0,1.313-.317,1.313-.853s-.486-.78-1.131-.9l-.985-.2c-1.106-.219-1.969-.719-1.969-1.913,0-1.157,1.24-1.9,2.662-1.9a2.545,2.545,0,0,1,2.712,1.937H67.858c-.158-.6-.705-.828-1.434-.828" transform="translate(-50.265 -94.191)" fill="#e00700"/>
      <path id="Path_376559" data-name="Path 376559" d="M77.953,150.259c0,.573.474.914,1.2.914a1.51,1.51,0,0,0,1.7-1.657v-.5c-2.067.195-2.905.487-2.905,1.242m2.869-2.254v-.122c0-1.12-.645-1.462-1.362-1.462a1.186,1.186,0,0,0-1.313,1.182H76.725a2.531,2.531,0,0,1,2.784-2.254,2.466,2.466,0,0,1,2.76,2.815c0,.329-.024,1.1-.024,1.693a11.541,11.541,0,0,0,.195,2.242H81.114a5.639,5.639,0,0,1-.122-.889,2.341,2.341,0,0,1-2.152,1.048c-1.422,0-2.419-.767-2.419-1.962,0-1.632,2.006-2.047,4.4-2.29" transform="translate(-56.754 -94.139)" fill="#e00700"/>
      <rect id="Rectangle_51716" data-name="Rectangle 51716" width="1.447" height="8.833" transform="translate(26.737 49.127)" fill="#e00700"/>
      <path id="Path_376560" data-name="Path 376560" d="M97.313,150.259c0,.573.474.914,1.2.914a1.51,1.51,0,0,0,1.7-1.657v-.5c-2.067.195-2.905.487-2.905,1.242m2.869-2.254v-.122c0-1.12-.644-1.462-1.362-1.462a1.185,1.185,0,0,0-1.312,1.182H96.085a2.531,2.531,0,0,1,2.784-2.254,2.466,2.466,0,0,1,2.76,2.815c0,.329-.024,1.1-.024,1.693a11.541,11.541,0,0,0,.195,2.242h-1.325a5.639,5.639,0,0,1-.122-.889,2.341,2.341,0,0,1-2.152,1.048c-1.422,0-2.419-.767-2.419-1.962,0-1.632,2.006-2.047,4.4-2.29" transform="translate(-66.658 -94.139)" fill="#e00700"/>
      <path id="Path_376561" data-name="Path 376561" d="M111.054,142.207v1.73h1.313v1.048h-1.313v3.57c0,.67.158.828.778.828h.523v1.109h-1.07c-1.4,0-1.678-.378-1.678-1.718v-3.788h-.973v-1.048h.973v-1.73Z" transform="translate(-73.233 -92.532)" fill="#e00700"/>
      <path id="Path_376562" data-name="Path 376562" d="M124.554,150.259c0,.573.474.914,1.2.914a1.51,1.51,0,0,0,1.7-1.657v-.5c-2.067.195-2.905.487-2.905,1.242m2.869-2.254v-.122c0-1.12-.644-1.462-1.361-1.462a1.185,1.185,0,0,0-1.313,1.182h-1.423a2.531,2.531,0,0,1,2.784-2.254,2.466,2.466,0,0,1,2.76,2.815c0,.329-.024,1.1-.024,1.693a11.541,11.541,0,0,0,.195,2.242h-1.326a5.707,5.707,0,0,1-.121-.889,2.341,2.341,0,0,1-2.152,1.048c-1.422,0-2.419-.767-2.419-1.962,0-1.632,2.006-2.047,4.4-2.29" transform="translate(-80.593 -94.139)" fill="#e00700"/>
      <path id="Path_376563" data-name="Path 376563" d="M140.937,145.45c1.58,0,2.224,1.023,2.224,2.583v4.118h-1.447v-3.764c0-.889-.133-1.755-1.24-1.755s-1.52.853-1.52,2.035v3.485h-1.446V145.6h1.446v.914a2.128,2.128,0,0,1,1.982-1.06" transform="translate(-88.003 -94.191)" fill="#e00700"/>
      <path id="Path_376564" data-name="Path 376564" d="M152.375,146.641c0,1.389.693,2.254,1.654,2.254s1.69-.743,1.69-2.254-.741-2.242-1.69-2.242-1.654.865-1.654,2.242m4.73-5.556v8.833h-1.447v-.866a2.165,2.165,0,0,1-1.946,1.024c-1.544,0-2.845-1.328-2.845-3.435s1.3-3.424,2.845-3.424a2.166,2.166,0,0,1,1.946,1.023v-3.155Z" transform="translate(-94.837 -91.958)" fill="#e00700"/>
    </g>
  </g>
</svg>
